<?xml version="1.0" encoding="utf-8"?>
<!-- Generator: Adobe Illustrator 27.5.0, SVG Export Plug-In . SVG Version: 6.00 Build 0)  -->
<svg version="1.1" xmlns="http://www.w3.org/2000/svg" xmlns:xlink="http://www.w3.org/1999/xlink" x="0px" y="0px"
	 viewBox="0 0 500 500" style="enable-background:new 0 0 500 500;" xml:space="preserve">
<g id="BACKGROUND">
	<linearGradient id="SVGID_1_" gradientUnits="userSpaceOnUse" x1="250" y1="214.8367" x2="250" y2="-27.0468">
		<stop  offset="0" style="stop-color:#FFFFFF"/>
		<stop  offset="1" style="stop-color:#FCE4EC"/>
	</linearGradient>
	<rect style="fill:url(#SVGID_1_);" width="500" height="421.086"/>
	<g>
		<polygon style="opacity:0.47;fill:#9FA8DA;" points="34.709,130.385 66.476,130.385 66.476,179.053 85.337,179.053 85.337,204.65 
			111.937,204.65 111.937,144.853 198.444,144.853 198.444,159.481 214.25,159.481 214.25,421.086 34.709,421.086 		"/>
		<g>
			<rect y="421.086" style="fill:#E9E9EA;" width="500" height="3.318"/>
			<rect x="212.64" y="396.418" style="fill:#C3BCAD;" width="287.36" height="24.667"/>
			<rect x="212.64" style="fill:#DBE2EF;" width="287.36" height="396.418"/>
			<rect style="fill:#DBE2EF;" width="35.41" height="396.418"/>
			<rect y="396.418" style="fill:#C3BCAD;" width="35.41" height="24.667"/>
			<g>
				<rect x="267.38" y="38.487" style="fill:#C3BCAD;" width="127.676" height="245.902"/>
				<rect x="279.303" y="48.518" style="fill:#8F8571;" width="103.829" height="225.839"/>
				<polygon style="fill:#112D4E;" points="282.25,52.374 282.25,124.627 354.504,52.374 				"/>
				<polygon style="fill:#1F528F;" points="380.186,52.374 354.504,52.374 282.25,124.627 282.25,200.603 380.186,102.668 				"/>
				<polygon style="fill:#112D4E;" points="380.186,102.668 282.25,200.603 282.25,247.409 380.186,149.474 				"/>
				<polygon style="fill:#1F528F;" points="380.186,149.474 282.25,247.409 282.25,274.357 287.864,274.357 380.186,182.035 				"/>
				<polygon style="fill:#112D4E;" points="380.186,182.035 287.864,274.357 380.186,274.357 				"/>
			</g>
			<rect x="428.704" y="38.487" style="fill:#C3BCAD;" width="71.296" height="382.599"/>
			<rect x="443.11" y="48.518" style="fill:#8F8571;" width="56.89" height="372.568"/>
			<polygon style="fill:#112D4E;" points="500,52.374 447.438,52.374 447.438,135.258 500,82.696 			"/>
			<polygon style="fill:#112D4E;" points="500,121.617 447.438,174.179 447.438,301.121 500,248.56 			"/>
			<polygon style="fill:#1F528F;" points="500,248.56 447.438,301.121 447.438,318.486 500,265.924 			"/>
			<polygon style="fill:#112D4E;" points="500,265.924 447.438,318.486 447.438,389.742 500,337.18 			"/>
			<polygon style="fill:#1F528F;" points="500,337.18 447.438,389.742 447.438,421.086 468.189,421.086 500,389.275 			"/>
			<polygon style="fill:#112D4E;" points="500,389.275 468.189,421.086 500,421.086 			"/>
			<polygon style="fill:#1F528F;" points="500,82.696 447.438,135.258 447.438,174.179 500,121.617 			"/>
		</g>
		<g style="opacity:0.78;">
			<rect x="229.467" y="357.532" style="fill:#DBE2EF;" width="53.63" height="26.533"/>
			<rect x="256.282" y="329.472" style="fill:#DBE2EF;" width="53.63" height="26.533"/>
			<rect x="285.029" y="357.532" style="fill:#DBE2EF;" width="53.63" height="26.533"/>
			<rect x="311.844" y="329.472" style="fill:#DBE2EF;" width="53.63" height="26.533"/>
			<rect x="340.592" y="357.532" style="fill:#DBE2EF;" width="53.63" height="26.533"/>
			<rect x="367.407" y="329.472" style="fill:#DBE2EF;" width="53.63" height="26.533"/>
		</g>
		<rect x="39.91" y="138.379" style="fill:#EDE7F6;" width="7.911" height="14.875"/>
		<rect x="53.899" y="138.379" style="fill:#EDE7F6;" width="7.911" height="14.875"/>
		<rect x="53.899" y="166.747" style="fill:#EDE7F6;" width="7.911" height="14.875"/>
		<rect x="39.91" y="195.114" style="fill:#EDE7F6;" width="7.911" height="14.875"/>
		<rect x="53.899" y="195.114" style="fill:#EDE7F6;" width="7.911" height="14.875"/>
		<rect x="39.91" y="223.482" style="fill:#EDE7F6;" width="7.911" height="14.875"/>
		<rect x="117.486" y="151.908" style="fill:#EDE7F6;" width="7.911" height="14.875"/>
		<rect x="134.309" y="151.908" style="fill:#EDE7F6;" width="7.911" height="14.875"/>
		<rect x="151.133" y="151.908" style="fill:#EDE7F6;" width="7.911" height="14.875"/>
		<rect x="167.956" y="151.908" style="fill:#EDE7F6;" width="7.911" height="14.875"/>
		<rect x="184.78" y="151.908" style="fill:#EDE7F6;" width="7.911" height="14.875"/>
		<rect x="117.486" y="180.204" style="fill:#EDE7F6;" width="7.911" height="14.875"/>
		<rect x="134.309" y="180.204" style="fill:#EDE7F6;" width="7.911" height="14.875"/>
		<rect x="151.133" y="180.204" style="fill:#EDE7F6;" width="7.911" height="14.875"/>
		<rect x="167.956" y="180.204" style="fill:#EDE7F6;" width="7.911" height="14.875"/>
		<rect x="184.78" y="180.204" style="fill:#EDE7F6;" width="7.911" height="14.875"/>
		<rect x="117.486" y="208.5" style="fill:#EDE7F6;" width="7.911" height="14.875"/>
		<rect x="134.309" y="208.5" style="fill:#EDE7F6;" width="7.911" height="14.875"/>
		<rect x="151.133" y="208.5" style="fill:#EDE7F6;" width="7.911" height="14.875"/>
		<rect x="167.956" y="208.5" style="fill:#EDE7F6;" width="7.911" height="14.875"/>
		<rect x="184.78" y="208.5" style="fill:#EDE7F6;" width="7.911" height="14.875"/>
		<rect x="117.486" y="236.796" style="fill:#EDE7F6;" width="7.911" height="14.875"/>
		<rect x="134.309" y="236.796" style="fill:#EDE7F6;" width="7.911" height="14.875"/>
		<rect x="151.133" y="236.796" style="fill:#EDE7F6;" width="7.911" height="14.875"/>
		<rect x="167.956" y="236.796" style="fill:#EDE7F6;" width="7.911" height="14.875"/>
		<rect x="117.486" y="265.093" style="fill:#EDE7F6;" width="7.911" height="14.875"/>
		<rect x="134.309" y="265.093" style="fill:#EDE7F6;" width="7.911" height="14.875"/>
		<rect x="167.956" y="265.093" style="fill:#EDE7F6;" width="7.911" height="14.875"/>
		<rect x="184.78" y="265.093" style="fill:#EDE7F6;" width="7.911" height="14.875"/>
	</g>
	<rect y="421.086" style="fill:#D3D1D3;" width="500" height="78.914"/>
	<polygon style="opacity:0.29;fill:#989498;" points="500,421.086 0,421.086 0,424.639 500,433.058 	"/>
	<polygon style="fill:#D3D1D3;" points="0,424.639 0,500 500,500 500,433.058 	"/>
</g>
<g id="OBJECTS">
	<g>
		<path style="fill:#004D40;" d="M84.848,340.811c-1.406-2.415-3.52-4.759-5.979-5.886c0.612,4.164,1.032,8.376,1.224,12.638
			c1.776,26.343-5.825,50.434-18.402,73.113h3.599c1.746-2.684,3.222-5.256,4.367-7.123c4.484-7.311,8.237-15.047,11.647-22.909
			c3.443-7.938,6.576-16.116,7.725-24.692C90.176,357.376,89.2,348.29,84.848,340.811z"/>
		<path style="fill:#00796B;" d="M58.851,420.677h2.839c12.578-22.679,20.178-46.77,18.402-73.113
			c-0.193-4.262-0.612-8.474-1.224-12.638c-1.36-0.623-2.823-0.879-4.334-0.556c-2.971,0.633-5.114,3.387-5.953,6.306
			c-0.839,2.919-0.625,6.022-0.471,9.055c1.152,22.727-1.52,45.644-7.872,67.496C59.905,418.371,59.453,419.594,58.851,420.677z"/>
		<path style="fill:#004D40;" d="M50.113,420.677c-0.007-0.014-0.016-0.027-0.022-0.042c-0.81-1.768-0.906-3.768-0.991-5.711
			c-0.465-10.595-0.997-21.275-3.629-31.549c-2.632-10.274-7.541-20.236-15.516-27.227c-2.377-2.083-5.755-3.953-8.543-2.464
			c-0.036,0.02-0.069,0.043-0.105,0.063c15.2,19.184,25.08,42.048,26.94,66.929H50.113z"/>
		<path style="fill:#00796B;" d="M46.718,420.677h1.529c-1.86-24.882-11.74-47.745-26.94-66.929
			c-2.004,1.146-2.808,3.763-2.49,6.061c0.323,2.339,1.562,4.436,2.752,6.475c10.049,17.217,18.459,35.389,25.082,54.192
			C46.674,420.54,46.695,420.61,46.718,420.677z"/>
		<path style="fill:#004D40;" d="M38.593,420.677c-4.049-10.215-9.692-19.796-16.687-28.27c-2.468-2.991-5.936-6.125-9.699-5.188
			c-1.339,0.333-2.405,1.16-3.182,2.249c9.699,9.406,18.391,19.881,25.684,31.21H38.593z"/>
		<path style="fill:#00796B;" d="M34.709,420.677c-7.293-11.328-15.985-21.804-25.684-31.21c-1.412,1.977-1.857,4.828-1.16,7.235
			c1.082,3.731,4.041,6.571,6.892,9.211c5.358,4.963,10.758,9.88,16.188,14.764H34.709z"/>
	</g>
	<g>
		<path style="fill:#004D40;" d="M307.766,310.455c-1.94-3.333-4.858-6.568-8.252-8.123c0.844,5.746,1.424,11.559,1.689,17.441
			c2.45,36.356-8.038,69.604-25.397,100.903h4.967c2.41-3.704,4.446-7.254,6.027-9.83c6.188-10.09,11.368-20.767,16.074-31.617
			c4.751-10.955,9.076-22.242,10.661-34.078C315.12,333.316,313.773,320.776,307.766,310.455z"/>
		<path style="fill:#00796B;" d="M271.888,420.677h3.918c17.359-31.299,27.847-64.547,25.397-100.903
			c-0.266-5.882-0.845-11.695-1.689-17.441c-1.876-0.859-3.896-1.213-5.981-0.768c-4.1,0.874-7.057,4.674-8.216,8.703
			c-1.158,4.029-0.863,8.311-0.65,12.497c1.591,31.366-2.098,62.993-10.865,93.15C273.343,417.495,272.719,419.183,271.888,420.677z
			"/>
		<path style="fill:#004D40;" d="M259.83,420.677c-0.009-0.02-0.021-0.038-0.03-0.057c-1.117-2.441-1.251-5.2-1.368-7.881
			c-0.642-14.623-1.376-29.361-5.009-43.54c-3.633-14.179-10.407-27.928-21.413-37.576c-3.28-2.875-7.942-5.456-11.79-3.401
			c-0.05,0.027-0.096,0.059-0.145,0.087c20.977,26.476,34.613,58.03,37.18,92.368H259.83z"/>
		<path style="fill:#00796B;" d="M255.143,420.677h2.111c-2.567-34.339-16.203-65.893-37.18-92.368
			c-2.765,1.582-3.875,5.193-3.436,8.365c0.446,3.228,2.156,6.122,3.798,8.936c13.868,23.761,25.476,48.84,34.615,74.789
			C255.083,420.488,255.112,420.585,255.143,420.677z"/>
		<path style="fill:#004D40;" d="M243.93,420.677c-5.588-14.097-13.376-27.32-23.029-39.015c-3.407-4.128-8.192-8.453-13.385-7.161
			c-1.848,0.46-3.318,1.601-4.391,3.104c13.385,12.981,25.381,27.438,35.446,43.072H243.93z"/>
		<path style="fill:#00796B;" d="M238.571,420.677c-10.065-15.634-22.061-30.092-35.446-43.072
			c-1.948,2.728-2.563,6.663-1.601,9.984c1.493,5.15,5.578,9.069,9.511,12.712c7.395,6.849,14.847,13.636,22.342,20.376H238.571z"/>
	</g>
	<g>
		<g>
			<path style="fill:#E9A890;" d="M265.068,174.299l38.495,12.994l2.07-24.547c0,0,0.177-5.659,11.285-5.618
				c11.108,0.041,13.933,11.235,13.933,11.235l-7.569,39.608c-2.06,5.949-8.29,9.37-14.415,7.916l-50.802-25.129L265.068,174.299z"
				/>
			<path style="fill:#734F2E;" d="M294.496,83.882c-1.887-3.387-2.727-7.493-1.619-11.208c1.108-3.715,4.407-6.863,8.273-7.158
				c3.213-0.245,6.36,1.387,9.567,1.082c4.345-0.414,7.632-4.209,11.84-5.369c2.567-0.708,5.41-0.354,7.726,0.962
				c2.316,1.315,4.076,3.576,4.783,6.143c0.414,1.504,0.484,3.106,1.088,4.545c1.364,3.249,5.084,4.919,6.807,7.993
				c1.652,2.947,1.155,6.675-0.188,9.774c-1.343,3.099-3.442,5.806-5.056,8.773c-2.688,4.944-3.996,10.63-3.738,16.252
				c-9.875-9.418-20.805-17.688-32.531-24.661C298.537,89.28,296.153,86.856,294.496,83.882z"/>
			<g>
				<ellipse style="opacity:0.29;fill:#989498;" cx="364.338" cy="457.979" rx="78.287" ry="11.335"/>
				<g>
					<g>
						<polygon style="fill:#FFC9B9;" points="349.342,440.417 362.642,440.417 361.179,429.528 347.809,429.528 						"/>
						<g>
							<polygon style="fill:#FFFFFF;" points="318.686,451.095 345.507,440.417 363.939,440.417 369.06,453.603 317.414,453.603 
															"/>
							<polygon style="fill:#212121;" points="369.06,453.603 369.868,455.685 316.358,455.685 317.414,453.603 							"/>
						</g>
					</g>
					<path style="fill:#212121;" d="M323.797,239.655v25.24l1.377,90.491l21.172,78.983l17.258-1.149l-0.962-68.422l-10.865-22.083
						c5.668-32.388,26.422-62.253,2.717-111.593v0L323.797,239.655z"/>
				</g>
				<g>
					<g>
						<polygon style="fill:#FFC9B9;" points="387.981,444.793 401.281,444.793 399.818,433.904 386.448,433.904 						"/>
						<g>
							<polygon style="fill:#FFFFFF;" points="357.325,455.471 384.146,444.793 402.578,444.793 407.699,457.979 356.053,457.979 
															"/>
							<polygon style="fill:#212121;" points="407.699,457.979 408.507,460.06 354.997,460.06 356.053,457.979 							"/>
						</g>
					</g>
					<path style="fill:#424242;" d="M350.49,247.352l4.318,21.498l9.006,90.911l21.172,78.983l17.258-1.149l-0.962-68.422
						l-10.799-24.782c5.668-32.389,12.748-77.602,2.651-108.894v0L350.49,247.352z"/>
					<path style="fill:#212121;" d="M392.566,331.306c-0.138-0.657-1.096-0.654-1.289-0.039c-0.696,2.219-0.672,4.715-1.176,6.995
						c-0.53,2.398-1.268,4.75-2.194,7.024c-1.864,4.579-4.556,8.871-7.839,12.565c-0.861,0.969,0.51,2.453,1.393,1.48
						c3.49-3.852,6.239-8.22,8.184-13.042c0.974-2.416,1.734-4.918,2.264-7.469C392.398,336.473,393.065,333.69,392.566,331.306z"/>
					<path style="fill:#212121;" d="M389.036,353.003c-0.1-0.202-0.417-0.316-0.613-0.18c-0.408,0.283-0.673,0.529-0.839,0.999
						c-0.173,0.489-0.285,0.995-0.409,1.498l-0.744,3.018c-0.248,1.007-0.487,2.015-0.716,3.027
						c-0.219,0.969-0.554,2.008-0.529,3.007c0.013,0.526,0.732,0.811,1.026,0.312c0.509-0.862,0.724-1.902,1.004-2.855
						c0.292-0.993,0.572-1.989,0.844-2.987c0.272-0.999,0.544-1.997,0.816-2.996c0.137-0.501,0.277-0.998,0.372-1.509
						C389.343,353.825,389.267,353.467,389.036,353.003z"/>
				</g>
			</g>
			<g>
				<path style="fill:#CFD8DC;" d="M298.916,142.701c0.223-3.702,6.38-9.722,9.458-11.79c10.5,8.029,17.28,20.895,23.958,32.675
					c-7.159,6.029-15.761,10.841-24.848,12.79c-2.515-7.508-4.824-15.086-6.894-22.729
					C299.621,150.068,298.693,146.403,298.916,142.701z"/>
				<g>
					<path style="fill:#E9A890;" d="M272.382,180.488c-2.659-4.029-5.319-8.057-7.978-12.085c-5.09,1.589-10.758,2.97-13.858,7.308
						c-2.512,3.515-2.98,8.389-1.184,12.318c1.797,3.929,6.666,3.639,10.968,4.037L272.382,180.488z"/>
					<path style="fill:#E9A890;" d="M251.769,157.668c6.474,1.98,11.592,6.828,14.064,13.112c1.009,2.565-2.947,4.193-3.956,1.629
						c-2.106-5.352-6.321-9.135-11.803-10.812C247.448,160.794,249.157,156.87,251.769,157.668z"/>
					<path style="fill:#E9A890;" d="M247.339,162.375c6.474,1.98,11.592,6.828,14.064,13.112c1.009,2.565-2.947,4.193-3.956,1.629
						c-2.106-5.352-6.321-9.135-11.803-10.812C243.019,165.501,244.727,161.576,247.339,162.375z"/>
					<path style="fill:#E9A890;" d="M244.752,168.253c6.474,1.98,11.592,6.828,14.064,13.112c1.009,2.565-2.947,4.193-3.956,1.629
						c-2.106-5.352-6.321-9.135-11.803-10.812C240.431,171.379,242.139,167.454,244.752,168.253z"/>
					<path style="fill:#E9A890;" d="M243.863,174.632c6.474,1.98,11.592,6.828,14.064,13.112c1.009,2.565-2.947,4.193-3.956,1.629
						c-2.106-5.352-6.321-9.135-11.803-10.812C239.542,177.758,241.251,173.833,243.863,174.632z"/>
				</g>
			</g>
			<path style="fill:#FAFAFA;" d="M301.545,153.383c-4.641-9.396-0.668-20.836,8.917-25.072c0.066-0.029,0.132-0.058,0.197-0.087
				c14.6-6.392,30.626-9.487,46.555-9.038c4.002,0.113,10.946,3.149,12.522,6.829c14.547,33.969,28.373,83.917,28.143,119.634
				c-13.709,14.641-54.324,15.125-73.994,12.186C320.988,227.242,315.483,181.596,301.545,153.383z"/>
			<path style="fill:#CFD8DC;" d="M355.503,165.768c0.954-5.724-1.908-12.402-7.632-16.218
				c-6.374,14.342-22.731,22.689-38.509,23.941c2.891,9.312,5.247,19.401,7.187,29.616c6.235-0.659,12.332-2.251,17.966-4.902
				C346.917,192.48,354.549,179.124,355.503,165.768z"/>
			<g>
				<g>
					<g>
						<g>
							<path style="fill:#FFC9B9;" d="M300.333,86.482c2.493-0.857,5.423-1.607,8.025-2.027c3.656-0.59,10.263,0.153,10.263,0.153
								c2.263,4.467,2.106,8.704,6.339,11.379c0.402,0.254,0.848,0.514,1.32,0.46c0.633-0.072,1.259-0.653,1.834-0.915
								c0.814-0.372,1.6-0.798,2.382-1.234c2.452-1.366,5.074-3.17,7.876-1.635c2.33,1.277,3.338,4.392,2.474,6.906
								c-0.863,2.513-3.341,4.298-5.975,4.648c-0.001,7.619,0.593,10.339,2.77,17.64c-0.803,3.726-3.528,8.615-6.494,10.022
								c-2.966,1.407-6.47,1.926-9.558,0.815c-0.675-3.647-1.528-7.181-2.774-10.674c-2.378,0.751-4.977,1.242-7.469,1.171
								c-0.946-0.027-1.958-0.142-2.675-0.759c-0.538-0.464-0.828-1.145-1.101-1.801C303.215,110.147,300.805,98.108,300.333,86.482
								z"/>
							<path style="fill:#E9A890;" d="M321.59,132.694c-0.675-3.647-1.528-7.181-2.774-10.675c-1.33,0.42-2.729,0.754-4.14,0.958
								c3.089-1.021,5.12-2.547,7.604-3.648C322.51,124.15,322.329,132.96,321.59,132.694z"/>
							<path style="fill:#E9A890;" d="M334.361,96.764c0.69-0.874,1.566-1.512,2.538-1.92c0.528-0.222,0.8,0.706,0.283,0.936
								c-0.861,0.383-1.604,0.982-2.2,1.779c-0.282,0.377-0.52,0.791-0.712,1.236c-0.175,0.404-0.226,0.73-0.55,1.004
								c-0.174,0.147-0.457,0.027-0.518-0.205C332.954,98.654,333.835,97.43,334.361,96.764z"/>
						</g>
						<path style="fill:#433025;" d="M313.334,96.219c-0.082-0.41-0.201-0.823-0.087-1.236c0.164-0.595,0.879-0.817,1.344-0.406
							c0.32,0.283,0.45,0.692,0.605,1.079c0.142,0.355,0.248,0.693,0.32,1.07c0.236,1.232-1.387,1.732-1.866,0.563
							C313.504,96.934,313.409,96.596,313.334,96.219z"/>
						<path style="fill:#433025;" d="M302.903,97.471c-0.068-0.412-0.173-0.829-0.046-1.238c0.183-0.589,0.906-0.787,1.357-0.36
							c0.31,0.293,0.427,0.707,0.568,1.099c0.13,0.36,0.225,0.701,0.285,1.08c0.194,1.239-1.444,1.685-1.884,0.5
							C303.049,98.192,302.965,97.851,302.903,97.471z"/>
					</g>
				</g>
			</g>
			<path style="fill:#734F2E;" d="M304.299,87.408c-1.505-0.933-4.152,0.611-4.865,2.013c-0.249,0.49,0.329,1.19,0.859,1.02
				c0.711-0.228,1.32-0.655,2.017-0.92c0.672-0.255,1.533-0.281,2.055-0.805C304.721,88.36,304.784,87.708,304.299,87.408z"/>
			<path style="fill:#734F2E;" d="M316.644,86.298c-1.922-1.116-5.066-0.468-6.982,0.384c-0.913,0.406-0.297,1.746,0.606,1.575
				c1.096-0.207,2.143-0.448,3.265-0.491c0.955-0.037,1.979,0.088,2.906-0.147C317.039,87.466,317.198,86.619,316.644,86.298z"/>
			<path style="fill:#FFFFFF;" d="M309.554,111.546c4.281-1.503,8.324-3.673,11.953-6.396c-2.749,3.78-6.882,5.86-11.201,7.281
				C310.07,112.122,309.824,111.823,309.554,111.546z"/>
			<path style="fill:#9C2222;" d="M321.506,105.15c0.182-0.136,0.368-0.267,0.547-0.407c0.061,0.845,0.03,1.708-0.078,2.561
				c-0.246,1.933-0.935,3.81-2.178,5.274c-1.792,2.109-4.415,3.498-7.172,3.748c-0.469-0.853-0.924-1.737-1.433-2.581
				c-0.275-0.455-0.568-0.896-0.887-1.315C314.624,111.01,318.758,108.931,321.506,105.15z"/>
			<path style="fill:#E9A890;" d="M311.17,116.861c0.034-0.457,0.742-0.365,0.707,0.092c-0.099,1.308,1.188,2.178,2.373,1.658
				c0.421-0.185,0.703,0.47,0.283,0.654C312.83,120.013,311.031,118.698,311.17,116.861z"/>
			<path style="fill:#CFD8DC;" d="M348.584,252.001c15.748-4.629,29.584-13.973,39.812-26.803c0.858-1.076,2.362,0.446,1.512,1.513
				c-10.448,13.105-24.681,22.628-40.756,27.353C347.829,254.452,347.264,252.389,348.584,252.001z"/>
			<path style="fill:#CFD8DC;" d="M321.772,132.008c6.551,0.94,13.017-2.973,15.29-9.169c0.47-1.282,2.538-0.728,2.062,0.569
				c-2.715,7.401-10.137,11.78-17.921,10.663C319.846,133.875,320.423,131.814,321.772,132.008z"/>
			<path style="fill:#E9A890;" d="M319.483,102.847c0.843-0.789,3.035-0.912,3.785,0.085c0.096,0.128-0.02,0.289-0.157,0.304
				c-0.563,0.063-1.128-0.186-1.702-0.174c-0.582,0.012-1.138,0.203-1.719,0.23C319.473,103.303,319.31,103.009,319.483,102.847z"/>
			<path style="fill:#2E353A;" d="M308.972,109.802c-0.017-0.535-0.159-1.076-0.522-1.3c-0.225-0.139-0.474-0.235-0.718-0.333
				c-0.435-0.173-0.885-0.307-1.316-0.491c-0.856-0.364-1.473-0.957-1.235-1.954c0.21-0.881,0.892-1.647,1.401-2.374
				c0.291-0.416,0.583-0.831,0.873-1.248c0.277-0.396,0.629-0.848,0.739-1.324c0.051-0.222-0.184-0.481-0.41-0.335
				c-0.461,0.296-0.792,0.827-1.105,1.268c-0.34,0.479-0.68,0.96-1.019,1.44c-0.608,0.859-1.303,1.74-1.377,2.832
				c-0.064,0.94,0.435,1.727,1.245,2.172c0.393,0.216,0.819,0.365,1.241,0.514c0.234,0.082,0.463,0.176,0.698,0.257
				c0.304,0.104,0.643,0.041,0.78,0.376c0.239,0.584-0.057,1.073-0.041,1.646c0.003,0.104,0.041,0.213,0.126,0.273
				c0.217,0.153,0.451-0.175,0.509-0.349C308.927,110.611,308.985,110.208,308.972,109.802z"/>
			<g>
				<g>
					<g>
						<rect x="232.149" y="121.052" style="fill:#7CB342;" width="32.256" height="17.264"/>
						<rect x="234.487" y="122.775" style="fill:none;stroke:#F2E0BE;stroke-miterlimit:10;" width="27.578" height="13.819"/>
						<path style="fill:#F2E0BE;" d="M248.232,133.83h-0.259c-2.296,0-4.157-1.861-4.157-4.157v-0.259
							c0-2.296,1.861-4.157,4.157-4.157h0.259c2.296,0,4.157,1.861,4.157,4.157v0.259
							C252.389,131.969,250.528,133.83,248.232,133.83z"/>
					</g>
					<g>
						<path style="fill:#FFC9B9;" d="M284.86,119.811c-4.386-4.202-10.121-6.974-16.139-7.8c-4.602-0.632-10.135,0.354-14.749,1.763
							c-3.165,0.967-0.945,8.054,0.219,11.151c1.165,3.098,4.11,5.451,7.388,5.905c3.713,0.514,7.339-1.242,10.571-3.142
							L284.86,119.811z"/>
						<path style="fill:#FFC9B9;" d="M258.755,129.967c0.004-0.037,0.007-0.055,0.009-0.078c0.04-0.142,0.093-0.307,0.102-0.335
							c0.055-0.174,0.124-0.342,0.189-0.513c0.029-0.058,0.058-0.116,0.088-0.174c0.18-0.344,0.382-0.676,0.587-1.005
							c0.418-0.67,0.851-1.328,1.196-2.039c0.25-0.514,0.396-1.005,0.256-1.582c-0.117-0.482-0.471-1.012-0.91-1.261
							c-0.886-0.503-2.339-0.382-2.843,0.654c-0.855,1.759-2.247,3.282-2.646,5.247c-0.231,1.135-0.213,2.228,0.207,3.314
							c0.384,0.993,1.099,1.945,2.085,2.407c0.522,0.245,0.997,0.398,1.582,0.256c0.482-0.117,1.012-0.471,1.261-0.91
							c0.497-0.874,0.389-2.354-0.654-2.843c-0.085-0.04-0.213-0.137-0.317-0.187c-0.012-0.013-0.024-0.026-0.036-0.039
							c-0.018-0.031-0.038-0.062-0.055-0.094c-0.015-0.029-0.028-0.058-0.042-0.087c-0.026-0.105-0.051-0.211-0.074-0.317
							c-0.001-0.045-0.003-0.09-0.001-0.135C258.74,130.154,258.746,130.06,258.755,129.967z"/>
						<path style="fill:#FFC9B9;" d="M261.308,113.291c-3.923-0.219-8.131-0.165-11.273,2.541c-2.774,2.389-3.769,6.139-4.456,9.585
							c-0.21,1.054,0.21,2.28,1.363,2.579c0.99,0.257,2.354-0.232,2.579-1.363c0.301-1.511,0.634-3.023,1.17-4.471
							c0.059-0.159,0.12-0.318,0.184-0.475c0.014-0.035,0.109-0.246,0.143-0.325c0.163-0.334,0.337-0.663,0.533-0.979
							c0.156-0.252,0.327-0.495,0.507-0.731c0.054-0.061,0.2-0.236,0.232-0.27c0.136-0.144,0.277-0.282,0.423-0.415
							c0.123-0.112,0.25-0.219,0.381-0.322c0.019-0.015,0.015-0.012,0.028-0.022c0.078-0.053,0.158-0.105,0.239-0.154
							c0.316-0.196,0.649-0.363,0.99-0.511c0.068-0.021,0.367-0.135,0.367-0.135c0.171-0.054,0.344-0.102,0.518-0.147
							c0.386-0.099,0.778-0.176,1.172-0.235c0.544-0.081,1.28-0.118,2.105-0.119c0.891-0.002,1.782,0.042,2.671,0.092
							c1.078,0.06,2.14-0.904,2.124-1.999C263.29,114.273,262.462,113.355,261.308,113.291z"/>
						<path style="fill:#FFC9B9;" d="M256.042,130.12c-0.043-0.012-0.084-0.029-0.126-0.044c-0.011-0.006-0.014-0.008-0.028-0.016
							c-0.053-0.032-0.104-0.069-0.155-0.104c-0.064-0.063-0.126-0.128-0.185-0.196c-0.14-0.173-0.123-0.144,0.05,0.089
							c-0.118-0.062-0.213-0.365-0.277-0.485c-0.028-0.089-0.055-0.178-0.078-0.269c-0.025-0.1-0.226-0.805-0.074-0.308
							c-0.107-0.348-0.039-1.05,0.063-1.397c-0.154,0.524,0.038-0.145,0.063-0.249c0.05-0.206,0.107-0.41,0.172-0.611
							c0.065-0.202,0.136-0.401,0.215-0.598c0.024-0.059,0.049-0.118,0.074-0.176c0.01-0.02,0.016-0.033,0.03-0.061
							c0.206-0.372,0.407-0.74,0.651-1.09c0.027-0.038,0.136-0.189,0.207-0.289c0.115-0.14,0.242-0.274,0.366-0.405
							c0.745-0.78,0.915-2.109,0.088-2.915c-0.765-0.746-2.12-0.922-2.915-0.088c-1.76,1.843-2.868,4.163-3.116,6.706
							c-0.265,2.712,1.037,5.574,3.759,6.449c1.027,0.33,2.301-0.294,2.579-1.363C257.689,131.607,257.141,130.473,256.042,130.12z"
							/>
						<path style="fill:#FFC9B9;" d="M256.896,116.721c-0.772-0.753-2.111-0.913-2.915-0.088c-1.781,1.827-3.6,3.768-4.406,6.247
							c-0.804,2.472-0.464,5.26,1.264,7.255c0.708,0.817,2.159,0.864,2.915,0.088c0.807-0.827,0.844-2.043,0.088-2.915
							c-0.014-0.016-0.066-0.067-0.114-0.118c-0.008-0.019-0.011-0.03-0.036-0.075c-0.049-0.09-0.102-0.176-0.148-0.268
							c-0.006-0.012-0.06-0.143-0.094-0.218c-0.009-0.028-0.018-0.056-0.021-0.067c-0.029-0.099-0.054-0.198-0.077-0.298
							c-0.023-0.101-0.042-0.202-0.059-0.304c-0.006-0.036-0.011-0.139-0.014-0.192c0-0.015,0-0.028,0-0.035
							c-0.003-0.131-0.003-0.263,0.003-0.394c0.002-0.037,0.017-0.319,0.035-0.493c0.005-0.018,0.008-0.034,0.015-0.061
							c0.025-0.103,0.047-0.206,0.073-0.309c0.06-0.229,0.133-0.455,0.216-0.677c0.036-0.094,0.075-0.186,0.113-0.279
							c0.005-0.008,0.007-0.01,0.014-0.021c0.123-0.202,0.223-0.42,0.346-0.623c0.262-0.434,0.559-0.844,0.869-1.245
							c0.018-0.023,0.029-0.037,0.042-0.054c0.066-0.077,0.131-0.154,0.198-0.231c0.158-0.181,0.319-0.36,0.482-0.537
							c0.367-0.398,0.744-0.785,1.121-1.173C257.56,118.864,257.717,117.522,256.896,116.721z"/>
					</g>
				</g>
				<path style="fill:#E9A890;" d="M257.037,125.434c0.607-0.102,0.401-1.034-0.203-0.932c-2.036,0.343-3.34,2.282-3.387,4.265
					c-0.055,2.345,1.322,4.346,2.884,5.965c0.426,0.441,1.137-0.195,0.71-0.637c-1.311-1.358-2.553-3-2.638-4.964
					C254.33,127.452,255.277,125.731,257.037,125.434z"/>
				<path style="fill:#E9A890;" d="M252.522,121.066c0.477-0.389-0.163-1.097-0.637-0.71c-1.594,1.299-2.611,3.261-2.703,5.322
					c-0.091,2.055,0.746,4.1,2.215,5.531c0.438,0.427,1.15-0.208,0.71-0.637C249.374,127.908,249.561,123.48,252.522,121.066z"/>
			</g>
			<path style="fill:#CFD8DC;" d="M370.365,150.469c-4.486,7.205-10.773,13.148-18.208,17.237c-1.078,0.593-0.146,2.259,0.93,1.667
				c7.733-4.253,14.268-10.458,18.931-17.949C372.666,150.382,371.014,149.425,370.365,150.469z"/>
			<path style="fill:#FFC9B9;" d="M347.871,150.504c-4.266-2.844-9.062-3.036-13.598-1.766c-0.739,0.466-1.16,0.812-1.16,0.812
				l-13.573,7.754l-35.875-38.909c-3.419-3.708-8.835-4.797-13.422-2.698l-8.577,3.924l42.524,62.384
				c3.546,5.202,10.455,6.872,15.985,3.864l32.203-18.182C354.579,161.572,353.943,154.921,347.871,150.504z"/>
			<path style="fill:#E9A890;" d="M350.268,149.664c-6.413-5.892-13.313-2.616-15.996-0.926c4.536-1.27,9.332-1.078,13.598,1.766
				c6.073,4.416,6.708,11.068,4.507,17.184l0.614-0.334C352.992,167.354,358.448,157.179,350.268,149.664z"/>
			<path style="fill:#CFD8DC;" d="M355.106,152.193c-2.95-4.793-8.419-7.661-14.048-7.107c-3.308,0.326-6.41,1.712-8.855,3.964
				c-1.032,0.951-0.266,1.266,0.909,0.501c5.499-3.579,12.818-3.527,17.668,0.829c4.859,4.363,5.567,11.649,1.809,16.96
				c-0.812,1.147,1.039,2.295,1.846,1.155C357.785,163.761,358.169,157.171,355.106,152.193z"/>
		</g>
		<g>
			<g>
				<ellipse style="opacity:0.29;fill:#989498;" cx="134.776" cy="457.979" rx="78.287" ry="11.335"/>
				<g>
					<g>
						<polygon style="fill:#FFC9B9;" points="141.478,440.417 128.177,440.417 129.64,429.528 143.01,429.528 						"/>
						<g>
							<polygon style="fill:#3F72AF;" points="172.133,451.095 145.312,440.417 126.88,440.417 121.759,453.603 173.405,453.603 
															"/>
							<polygon style="fill:#212121;" points="121.759,453.603 120.951,455.685 174.462,455.685 173.405,453.603 							"/>
						</g>
					</g>
					<path style="fill:#212121;" d="M167.022,239.655v25.24l0.43,83.749l-23.411,87.339h-16.864l1.001-71.185l10.865-22.083
						c-5.668-32.388-26.422-62.253-2.717-111.593v0L167.022,239.655z"/>
				</g>
				<g>
					<g>
						<polygon style="fill:#FFC9B9;" points="111.133,444.793 97.833,444.793 98.23,433.904 112.666,433.904 						"/>
						<g>
							<polygon style="fill:#3F72AF;" points="141.789,455.471 114.968,444.793 96.536,444.793 91.415,457.979 143.061,457.979 
															"/>
							<polygon style="fill:#212121;" points="91.415,457.979 90.607,460.06 144.117,460.06 143.061,457.979 							"/>
						</g>
					</g>
					<path style="fill:#424242;" d="M148.624,247.352l-4.318,21.498l-7.642,85.824l-22.983,85.743H96.831l1.002-71.243
						l10.799-24.782c-5.668-32.389-12.748-77.602-2.651-108.894v0L148.624,247.352z"/>
					<path style="fill:#212121;" d="M106.548,331.306c0.138-0.657,1.096-0.654,1.289-0.039c0.696,2.219,0.672,4.715,1.176,6.995
						c0.53,2.398,1.268,4.75,2.194,7.024c1.864,4.579,4.556,8.871,7.839,12.565c0.861,0.969-0.511,2.453-1.393,1.48
						c-3.49-3.852-6.24-8.22-8.184-13.042c-0.974-2.416-1.734-4.918-2.264-7.469C106.716,336.473,106.049,333.69,106.548,331.306z"
						/>
					<path style="fill:#212121;" d="M110.078,353.003c0.1-0.202,0.417-0.316,0.613-0.18c0.408,0.283,0.673,0.529,0.839,0.999
						c0.173,0.489,0.285,0.995,0.408,1.498l0.744,3.018c0.248,1.007,0.488,2.015,0.716,3.027c0.219,0.969,0.554,2.008,0.529,3.007
						c-0.013,0.526-0.732,0.811-1.027,0.312c-0.509-0.862-0.724-1.902-1.004-2.855c-0.292-0.993-0.572-1.989-0.844-2.987
						c-0.272-0.999-0.544-1.997-0.816-2.996c-0.136-0.501-0.277-0.998-0.372-1.509C109.771,353.825,109.847,353.467,110.078,353.003
						z"/>
				</g>
			</g>
			<g>
				<polygon style="fill:#E9A890;" points="220.276,211.113 175.297,214.041 184.692,189.117 215.241,197.671 				"/>
				<path style="fill:#2E353A;" d="M195.843,93.275c-12.345-2.481-25.046-2.979-37.605-3.797c-0.686,1.136-1.695,2.042-2.493,3.108
					c-2.336,3.116-2.704,7.597-1.715,11.479c1.568,6.148,5.942,14.433,12.709,12.233c2.597-0.844,4.821-2.657,7.15-4.172
					c4.266-2.774,9.038-4.611,13.951-5.371c2.302-0.356,4.755-0.525,6.661-1.983c3.136-2.398,3.516-7.717,1.481-11.262
					C195.937,93.433,195.89,93.354,195.843,93.275z"/>
				<g>
					<path style="fill:#E9A890;" d="M157.065,200.375c2.379,7.75,10.125,13.62,18.232,13.666
						c4.092-9.652,7.794-19.467,11.123-29.407c-9.087-1.949-17.689-6.761-24.848-12.79
						C156.432,180.912,154.079,190.648,157.065,200.375z"/>
					<path style="fill:#112D4E;" d="M194.989,150.96c-0.223-3.702-6.381-9.722-9.458-11.79c-10.5,8.029-17.28,20.895-23.958,32.675
						c7.159,6.029,15.761,10.841,24.848,12.79c2.515-7.508,4.824-15.086,6.894-22.729
						C194.284,158.327,195.211,154.661,194.989,150.96z"/>
					<g>
						<path style="fill:#E9A890;" d="M213.89,198.287c2.66-4.029,5.319-8.057,7.978-12.086c5.09,1.59,10.758,2.97,13.858,7.308
							c2.512,3.515,2.98,8.389,1.184,12.318c-1.797,3.929-12.332,4.887-16.634,5.286L213.89,198.287z"/>
						<path style="fill:#E9A890;" d="M234.503,175.467c-6.474,1.98-11.592,6.828-14.064,13.112
							c-1.009,2.565,2.947,4.193,3.956,1.629c2.106-5.352,6.321-9.135,11.803-10.812
							C238.824,178.593,237.116,174.668,234.503,175.467z"/>
						<path style="fill:#E9A890;" d="M238.933,180.173c-6.474,1.98-11.592,6.828-14.064,13.112
							c-1.009,2.565,2.947,4.193,3.956,1.629c2.105-5.352,6.321-9.135,11.803-10.812
							C243.254,183.299,241.545,179.375,238.933,180.173z"/>
						<path style="fill:#E9A890;" d="M241.521,186.052c-6.474,1.98-11.592,6.828-14.064,13.112
							c-1.009,2.565,2.947,4.193,3.956,1.629c2.105-5.352,6.321-9.135,11.803-10.812
							C245.841,189.177,244.133,185.253,241.521,186.052z"/>
						<path style="fill:#E9A890;" d="M242.409,192.43c-6.474,1.98-11.592,6.828-14.064,13.112c-1.009,2.565,2.947,4.193,3.956,1.629
							c2.106-5.352,6.321-9.135,11.803-10.812C246.73,195.556,245.022,191.632,242.409,192.43z"/>
					</g>
				</g>
				<path style="fill:#3F72AF;" d="M192.36,161.641c4.641-9.395,0.669-20.835-8.917-25.071c-0.066-0.029-0.132-0.058-0.197-0.087
					c-14.6-6.392-30.626-9.487-46.555-9.038c-4.002,0.113-10.946,3.149-12.522,6.829c-14.547,33.969-22.671,77.931-20.573,113.763
					c16.935,10.428,44.525,9.511,64.194,6.572C170.686,224.016,178.422,189.855,192.36,161.641z"/>
				<path style="fill:#3F72AF;" d="M125.561,205.522c-9.325-23.312-6.799-48.447-0.444-72.732c-0.402,0.479-0.731,0.974-0.949,1.483
					c-14.547,33.969-26.21,86.466-24.112,122.299c16.935,10.428,49.347,7.513,69.016,4.574c-0.61-12.952,0.75-24.074,2.367-33.053
					C153.184,232.846,132.698,224.793,125.561,205.522z"/>
				<path style="fill:#112D4E;" d="M136.055,174.994c-2.738-15.331-5.153-31.29-3.836-46.616c-2.724,0.949-5.53,2.54-7.102,4.413
					c-6.355,24.285-8.881,49.42,0.444,72.732c7.137,19.271,27.623,27.324,45.878,22.571c1.257-6.983,2.767-14.009,4.539-20.977
					C157.043,206.98,140.257,194.322,136.055,174.994z"/>
				<path style="fill:#3F72AF;" d="M183.443,136.57c-0.066-0.029-0.132-0.058-0.197-0.087c-14.6-6.392-30.626-9.487-46.555-9.038
					c-1.281,0.036-2.861,0.373-4.471,0.933c-1.318,15.326,1.098,31.285,3.836,46.616c4.202,19.327,20.988,31.986,39.924,32.122
					c4.031-15.85,9.429-31.402,16.381-45.475C197.001,152.246,193.028,140.806,183.443,136.57z"/>
				<g>
					<g>
						<g>
							<g>
								<path style="fill:#FFC9B9;" d="M193.571,94.741c-2.492-0.857-5.423-1.607-8.025-2.027
									c-3.656-0.59-10.263,0.153-10.263,0.153c-2.263,4.467-2.106,8.704-6.339,11.379c-0.402,0.254-0.848,0.514-1.32,0.46
									c-0.633-0.072-1.259-0.652-1.834-0.915c-0.814-0.372-1.6-0.798-2.382-1.234c-2.452-1.366-5.074-3.17-7.876-1.635
									c-2.331,1.277-3.338,4.393-2.475,6.906c0.863,2.513,3.341,4.298,5.975,4.648c0.001,7.619-0.593,10.339-2.77,17.64
									c0.803,3.725,3.528,8.615,6.494,10.022c2.966,1.407,6.47,1.926,9.558,0.815c0.675-3.647,1.528-7.181,2.774-10.674
									c2.377,0.751,4.976,1.242,7.469,1.171c0.945-0.027,1.958-0.142,2.675-0.759c0.538-0.464,0.828-1.145,1.101-1.801
									C190.689,118.406,193.099,106.367,193.571,94.741z"/>
								<path style="fill:#E9A890;" d="M193.328,98.715c0.104-1.328,0.19-2.654,0.243-3.974c-2.492-0.857-5.423-1.607-8.025-2.027
									c-3.656-0.59-10.263,0.153-10.263,0.153c-0.949,1.873-1.474,3.705-2.074,5.399
									C179.916,96.942,186.622,97.473,193.328,98.715z"/>
								<path style="fill:#FFC9B9;" d="M173.209,98.266c-0.831,2.345-1.808,4.427-4.266,5.98c-0.402,0.254-0.848,0.514-1.32,0.46
									c-0.633-0.072-1.259-0.652-1.834-0.915c-0.814-0.372-1.6-0.798-2.382-1.234c-2.452-1.366-5.074-3.17-7.876-1.635
									c-2.331,1.277-3.338,4.393-2.475,6.906c0.863,2.513,3.341,4.298,5.975,4.648c0.001,7.619-0.593,10.339-2.77,17.64
									c0.803,3.725,3.528,8.615,6.494,10.022c2.966,1.407,6.47,1.926,9.558,0.815c0.675-3.647,1.528-7.181,2.774-10.674
									c2.377,0.751,4.976,1.242,7.469,1.171c0.945-0.027,1.958-0.142,2.675-0.759c0.538-0.464,0.828-1.145,1.101-1.801
									c3.861-9.293,6.186-19.807,6.995-30.174C186.622,97.473,179.916,96.942,173.209,98.266z"/>
								<path style="fill:#E9A890;" d="M172.314,140.952c0.675-3.647,1.528-7.181,2.774-10.674c1.33,0.42,2.729,0.754,4.14,0.958
									c-3.089-1.021-5.12-2.547-7.604-3.648C171.394,132.409,171.575,141.218,172.314,140.952z"/>
							</g>
							<path style="fill:#433025;" d="M180.571,104.477c0.082-0.41,0.201-0.823,0.087-1.236c-0.164-0.594-0.879-0.817-1.345-0.405
								c-0.32,0.283-0.45,0.692-0.605,1.079c-0.142,0.355-0.248,0.694-0.32,1.07c-0.236,1.232,1.387,1.732,1.866,0.563
								C180.4,105.192,180.496,104.854,180.571,104.477z"/>
							<path style="fill:#433025;" d="M191.001,105.73c0.068-0.412,0.173-0.829,0.046-1.238c-0.183-0.589-0.906-0.787-1.357-0.36
								c-0.31,0.293-0.427,0.706-0.568,1.099c-0.13,0.359-0.225,0.701-0.285,1.08c-0.194,1.239,1.443,1.685,1.884,0.5
								C190.855,106.45,190.939,106.109,191.001,105.73z"/>
						</g>
					</g>
				</g>
				<path style="fill:#2E353A;" d="M189.605,95.667c1.505-0.933,4.152,0.611,4.865,2.013c0.249,0.49-0.329,1.19-0.859,1.02
					c-0.711-0.228-1.319-0.655-2.017-0.92c-0.672-0.256-1.533-0.281-2.055-0.805C189.184,96.618,189.121,95.967,189.605,95.667z"/>
				<path style="fill:#2E353A;" d="M177.26,94.556c1.922-1.116,5.066-0.468,6.982,0.384c0.912,0.406,0.296,1.746-0.606,1.575
					c-1.096-0.207-2.142-0.449-3.265-0.492c-0.955-0.037-1.979,0.088-2.906-0.147C176.865,95.725,176.707,94.878,177.26,94.556z"/>
				<path style="fill:#112D4E;" d="M151.608,246.083c-15.748-4.629-29.583-13.973-39.812-26.803
					c-0.858-1.076-2.362,0.446-1.512,1.512c10.448,13.105,24.681,22.628,40.756,27.353
					C152.363,248.535,152.928,246.471,151.608,246.083z"/>
				<path style="fill:#112D4E;" d="M172.133,140.266c-6.551,0.94-13.017-2.974-15.29-9.169c-0.47-1.282-2.538-0.728-2.063,0.569
					c2.715,7.401,10.137,11.78,17.921,10.663C174.059,142.134,173.481,140.073,172.133,140.266z"/>
				<g>
					<path style="fill:#3F72AF;" d="M168.233,77.641c7.55-0.839,15.101,0.37,22.651,1.405c-2.898-3.461-7.212-5.722-11.72-6.209
						c-5.344-0.577-16.384,3.903-20.568,7.276c-4.185,3.373-5.408,7.799-4.143,13.85l15.984,0.609
						C170.844,88.928,170.114,83.285,168.233,77.641z"/>
					<path style="fill:#82B1FF;" d="M190.884,79.046c-7.55-1.035-15.101-2.244-22.651-1.405c1.881,5.644,2.611,11.287,2.205,16.931
						l24.486-0.239c0.36-4.56-0.222-9.329-2.566-13.256C191.926,80.355,191.421,79.687,190.884,79.046z"/>
					<path style="fill:#3F72AF;" d="M206.028,93.201c-4.238-0.742-8.641-0.856-12.933-1.071c-4.298-0.215-8.603-0.34-12.907-0.341
						c-4.305-0.001-8.609,0.098-12.909,0.298c-2.192,0.102-4.386,0.214-6.573,0.397c-1.839,0.154-4.322,0.014-5.914,1.063
						c-0.512,0.338-0.421,1.006,0.124,1.241c1.81,0.781,4.304,0.221,6.221,0.118c2.022-0.108,4.043-0.228,6.066-0.312
						c4.3-0.179,8.604-0.257,12.908-0.234c4.22,0.022,8.439,0.118,12.654,0.319c4.289,0.205,8.592,0.759,12.881,0.822
						C206.914,95.519,207.378,93.437,206.028,93.201z"/>
				</g>
				<g>
					<rect x="193.434" y="149.444" style="fill:#C3922E;" width="70.918" height="51.833"/>
					<rect x="220.734" y="149.444" style="fill:#F4E09C;" width="14.896" height="14.896"/>
					<g>
						<g>
							<path style="fill:#6C301E;" d="M259.228,173.408c-0.653-3.01-4.143-5.311-8.362-5.311c-4.219,0-7.709,2.301-8.362,5.311
								H259.228z"/>
						</g>
						<g>
							<path style="fill:#6C301E;" d="M252.448,182.624c-1.157,0-2.098-0.941-2.098-2.098v-7.119c0-0.285,0.231-0.516,0.516-0.516
								s0.516,0.23,0.516,0.516v7.119c0,0.588,0.478,1.066,1.066,1.066c0.588,0,1.066-0.478,1.066-1.066v-2.034
								c0-0.285,0.231-0.516,0.516-0.516c0.285,0,0.516,0.231,0.516,0.516v2.034C254.545,181.684,253.604,182.624,252.448,182.624z"
								/>
						</g>
					</g>
					<g>
						<rect x="242.527" y="186.201" style="fill:#6C301E;" width="1.176" height="12.811"/>
						<rect x="244.527" y="186.201" style="fill:#6C301E;" width="1.176" height="10.005"/>
						<rect x="246.527" y="186.201" style="fill:#6C301E;" width="1.176" height="10.005"/>
						<rect x="248.527" y="186.201" style="fill:#6C301E;" width="1.176" height="10.005"/>
						<rect x="250.527" y="186.201" style="fill:#6C301E;" width="1.176" height="10.005"/>
						<rect x="252.527" y="186.201" style="fill:#6C301E;" width="1.176" height="10.005"/>
						<rect x="254.527" y="186.201" style="fill:#6C301E;" width="1.176" height="10.005"/>
						<rect x="256.527" y="186.201" style="fill:#6C301E;" width="1.176" height="10.005"/>
						<rect x="258.527" y="186.201" style="fill:#6C301E;" width="1.176" height="12.811"/>
					</g>
				</g>
				<g>
					<g>
						<path style="fill:#3F72AF;" d="M147.607,172.829c-1.171-10.928-1.188-20.914-0.403-32.273
							c0.43-6.223-4.098-12.695-10.964-13.036c-6.463-0.321-13.198,4.066-13.659,10.736c-0.807,11.674-0.943,23.653,0.163,35.398
							C130.729,175.111,139.416,174.865,147.607,172.829z"/>
						<path style="fill:#FFC9B9;" d="M203.157,184.674c2.547-4.101,5.094-8.201,7.64-12.302c5.132,1.448,10.836,2.671,14.055,6.921
							c2.609,3.444,3.212,8.303,1.524,12.28c-1.687,3.977-5.6,6.92-9.889,7.438L203.157,184.674z"/>
						<path style="fill:#FFC9B9;" d="M223.13,161.292c-6.417,2.159-11.398,7.147-13.695,13.497c-0.938,2.592,3.062,4.11,4,1.518
							c1.956-5.408,6.065-9.307,11.499-11.135C227.536,164.297,225.719,160.421,223.13,161.292z"/>
						<path style="fill:#FFC9B9;" d="M227.688,165.874c-6.417,2.159-11.398,7.147-13.695,13.497c-0.938,2.592,3.062,4.11,4,1.518
							c1.956-5.408,6.065-9.307,11.499-11.135C232.094,168.878,230.277,165.003,227.688,165.874z"/>
						<path style="fill:#FFC9B9;" d="M230.438,171.678c-6.417,2.159-11.398,7.147-13.695,13.497c-0.938,2.592,3.062,4.11,4,1.518
							c1.956-5.408,6.065-9.307,11.499-11.135C234.844,174.683,233.027,170.807,230.438,171.678z"/>
						<path style="fill:#FFC9B9;" d="M231.503,178.03c-6.417,2.159-11.398,7.147-13.695,13.497c-0.938,2.592,3.062,4.11,4,1.518
							c1.956-5.408,6.065-9.307,11.499-11.135C235.909,181.034,234.092,177.159,231.503,178.03z"/>
					</g>
				</g>
				<path style="fill:#433025;" d="M187.221,103.434c-0.106-0.606-1.038-0.401-0.932,0.203c0.665,3.798,0.666,7.689,0,11.486
					c-1.387-0.102-2.774-0.204-4.162-0.306c-0.612-0.045-0.653,0.908-0.04,0.953c1.526,0.112,3.052,0.224,4.577,0.336
					c0.189,0.014,0.438-0.135,0.475-0.335C187.903,111.69,187.937,107.525,187.221,103.434z"/>
				<path style="fill:#433025;" d="M181.396,122.557c-3.031,0.075-5.961-1.634-7.358-4.331c-0.283-0.546-1.133-0.112-0.85,0.433
					c1.545,2.982,4.805,4.934,8.169,4.851C181.967,123.496,182.012,122.542,181.396,122.557z"/>
				<path style="fill:#E9A890;" d="M160.62,105.296c-0.249-1.075-0.919-2.041-1.86-2.626c-1.018-0.632-2.314-0.789-3.453-0.42
					c-0.245,0.079-0.423,0.299-0.364,0.568c0.051,0.233,0.322,0.444,0.568,0.365c0.909-0.294,1.914-0.218,2.734,0.291
					c0.73,0.453,1.249,1.19,1.443,2.026C159.827,106.098,160.759,105.896,160.62,105.296z"/>
				<path style="fill:#FFC9B9;" d="M205.876,183.426l-54.4,15.997l-2.75-28.153c-1.292,0.786-2.696,1.409-4.256,1.877
					c-3.494,1.047-7.223,1.34-10.857,1.254c-2.507-0.06-5.085-0.091-7.575-0.39c-0.755-0.091-1.576-0.219-2.379-0.424l3.687,41.14
					c0.123,1.371,0.76,2.943,1.747,4.563c5.456,8.956,17.132,11.855,26.379,6.908l61.014-27.186L205.876,183.426z"/>
				<path style="fill:#E9A890;" d="M216.488,199.012c-19.089,6.338-30.841,13.474-51.188,19.9
					c-11.597,3.663-29.437,11.237-34.741-4.839l-2.61-33.93c7.028,1.698,14.582-1.352,21.147-5.097l-0.369-3.777
					c-1.292,0.786-2.696,1.409-4.256,1.877c-3.494,1.047-7.223,1.34-10.857,1.254c-2.507-0.06-5.085-0.091-7.575-0.39
					c-0.755-0.091-1.576-0.219-2.379-0.424l3.687,41.14c0.123,1.371,0.76,2.943,1.747,4.563c5.456,8.956,17.132,11.855,26.379,6.908
					L216.488,199.012L216.488,199.012z"/>
				<path style="fill:#112D4E;" d="M149.26,169.875c-8.367,3.917-17.859,4.864-26.825,2.62c-1.193-0.299-1.626,1.56-0.435,1.858
					c9.263,2.319,19.187,1.391,27.839-2.659C150.934,171.181,150.373,169.354,149.26,169.875z"/>
			</g>
		</g>
	</g>
</g>
</svg>
